<mxfile host="app.diagrams.net" agent="Mozilla/5.0 (Windows NT 10.0; Win64; x64) AppleWebKit/537.36 (KHTML, like Gecko) Chrome/137.0.0.0 Safari/537.36" version="27.1.6">
  <diagram name="Page-1" id="pMuclvyMAqnFr8XU83Wx">
    <mxGraphModel dx="1042" dy="561" grid="1" gridSize="10" guides="1" tooltips="1" connect="1" arrows="1" fold="1" page="1" pageScale="1" pageWidth="850" pageHeight="1100" math="0" shadow="0">
      <root>
        <mxCell id="0" />
        <mxCell id="1" parent="0" />
        <mxCell id="WcN_yYlwKVQ22YOPY5FL-1" value="DimCardType" style="swimlane;childLayout=stackLayout;horizontal=1;startSize=50;horizontalStack=0;rounded=1;fontSize=14;fontStyle=0;strokeWidth=2;resizeParent=0;resizeLast=1;shadow=0;dashed=0;align=center;arcSize=4;whiteSpace=wrap;html=1;labelBackgroundColor=none;fillColor=#A8DADC;strokeColor=#457B9D;fontColor=#1D3557;" vertex="1" parent="1">
          <mxGeometry x="70" y="250" width="160" height="120" as="geometry" />
        </mxCell>
        <mxCell id="WcN_yYlwKVQ22YOPY5FL-2" value="&lt;div&gt;CardTypeID_BK&amp;nbsp;&amp;nbsp;&lt;/div&gt;&lt;div&gt;&amp;nbsp; &amp;nbsp; TypeCode&amp;nbsp; &amp;nbsp; &amp;nbsp; &amp;nbsp;&lt;/div&gt;&lt;div&gt;&amp;nbsp; &amp;nbsp; Label_EN&amp;nbsp; &amp;nbsp; &amp;nbsp; &amp;nbsp;&lt;/div&gt;&lt;div&gt;&amp;nbsp; &amp;nbsp; Label_FA&amp;nbsp;&amp;nbsp;&lt;/div&gt;" style="align=left;strokeColor=none;fillColor=none;spacingLeft=4;spacingRight=4;fontSize=12;verticalAlign=top;resizable=0;rotatable=0;part=1;html=1;whiteSpace=wrap;labelBackgroundColor=none;fontColor=#1D3557;" vertex="1" parent="WcN_yYlwKVQ22YOPY5FL-1">
          <mxGeometry y="50" width="160" height="70" as="geometry" />
        </mxCell>
        <mxCell id="WcN_yYlwKVQ22YOPY5FL-3" value="DimCardStatus" style="swimlane;childLayout=stackLayout;horizontal=1;startSize=50;horizontalStack=0;rounded=1;fontSize=14;fontStyle=0;strokeWidth=2;resizeParent=0;resizeLast=1;shadow=0;dashed=0;align=center;arcSize=4;whiteSpace=wrap;html=1;labelBackgroundColor=none;fillColor=#A8DADC;strokeColor=#457B9D;fontColor=#1D3557;" vertex="1" parent="1">
          <mxGeometry x="480" y="170" width="160" height="120" as="geometry" />
        </mxCell>
        <mxCell id="WcN_yYlwKVQ22YOPY5FL-4" value="&lt;div&gt;CardStatusID_BK&amp;nbsp;&lt;/div&gt;&lt;div&gt;&amp;nbsp; &amp;nbsp; StatusCode&amp;nbsp; &amp;nbsp; &amp;nbsp;&lt;/div&gt;&lt;div&gt;&amp;nbsp; &amp;nbsp; Label_EN&amp;nbsp; &amp;nbsp; &amp;nbsp; &amp;nbsp;&lt;/div&gt;&lt;div&gt;&amp;nbsp; &amp;nbsp; Label_FA&amp;nbsp; &amp;nbsp; &amp;nbsp;&amp;nbsp;&lt;/div&gt;" style="align=left;strokeColor=none;fillColor=none;spacingLeft=4;spacingRight=4;fontSize=12;verticalAlign=top;resizable=0;rotatable=0;part=1;html=1;whiteSpace=wrap;labelBackgroundColor=none;fontColor=#1D3557;" vertex="1" parent="WcN_yYlwKVQ22YOPY5FL-3">
          <mxGeometry y="50" width="160" height="70" as="geometry" />
        </mxCell>
        <mxCell id="WcN_yYlwKVQ22YOPY5FL-5" value="DimSalesChannel" style="swimlane;childLayout=stackLayout;horizontal=1;startSize=50;horizontalStack=0;rounded=1;fontSize=14;fontStyle=0;strokeWidth=2;resizeParent=0;resizeLast=1;shadow=0;dashed=0;align=center;arcSize=4;whiteSpace=wrap;html=1;labelBackgroundColor=none;fillColor=#A8DADC;strokeColor=#457B9D;fontColor=#1D3557;" vertex="1" parent="1">
          <mxGeometry x="70" y="110" width="160" height="120" as="geometry" />
        </mxCell>
        <mxCell id="WcN_yYlwKVQ22YOPY5FL-6" value="&lt;div&gt;SalesChannelID_BK&amp;nbsp;&lt;/div&gt;&lt;div&gt;&amp;nbsp; &amp;nbsp; ChannelCode&amp;nbsp; &amp;nbsp; &amp;nbsp;&lt;/div&gt;&lt;div&gt;&amp;nbsp; &amp;nbsp; Label_EN&amp;nbsp; &amp;nbsp; &amp;nbsp; &amp;nbsp;&amp;nbsp;&lt;/div&gt;&lt;div&gt;&amp;nbsp; &amp;nbsp; Label_FA&amp;nbsp;&amp;nbsp;&lt;/div&gt;" style="align=left;strokeColor=none;fillColor=none;spacingLeft=4;spacingRight=4;fontSize=12;verticalAlign=top;resizable=0;rotatable=0;part=1;html=1;whiteSpace=wrap;labelBackgroundColor=none;fontColor=#1D3557;" vertex="1" parent="WcN_yYlwKVQ22YOPY5FL-5">
          <mxGeometry y="50" width="160" height="70" as="geometry" />
        </mxCell>
        <mxCell id="WcN_yYlwKVQ22YOPY5FL-7" value="FactTrnsCardTopUp" style="swimlane;childLayout=stackLayout;horizontal=1;startSize=50;horizontalStack=0;rounded=1;fontSize=14;fontStyle=0;strokeWidth=2;resizeParent=0;resizeLast=1;shadow=0;dashed=0;align=center;arcSize=4;whiteSpace=wrap;html=1;labelBackgroundColor=none;fillColor=#A8DADC;strokeColor=#457B9D;fontColor=#1D3557;" vertex="1" parent="1">
          <mxGeometry x="270" y="40" width="160" height="190" as="geometry" />
        </mxCell>
        <mxCell id="WcN_yYlwKVQ22YOPY5FL-8" value="&lt;div&gt;&amp;nbsp;DateKey&amp;nbsp; &amp;nbsp; &amp;nbsp; &amp;nbsp;&amp;nbsp;&lt;/div&gt;&lt;div&gt;&lt;span style=&quot;white-space: normal;&quot;&gt;StationKey&amp;nbsp; &amp;nbsp; &amp;nbsp;&lt;/span&gt;&lt;/div&gt;&lt;div&gt;&amp;nbsp;TimeKey&amp;nbsp; &amp;nbsp; &amp;nbsp; &amp;nbsp; &amp;nbsp; &amp;nbsp;&lt;span style=&quot;background-color: transparent; color: light-dark(rgb(0, 0, 0), rgb(255, 255, 255));&quot;&gt;SalesChannelKey&amp;nbsp;&lt;/span&gt;&lt;/div&gt;&lt;div&gt;&amp;nbsp;CardTypeKey&amp;nbsp; &amp;nbsp;&lt;/div&gt;&lt;div&gt;&amp;nbsp;CardStatusKey&amp;nbsp;&amp;nbsp;&lt;/div&gt;&lt;div&gt;&amp;nbsp; Amount&amp;nbsp; &amp;nbsp; &amp;nbsp; &amp;nbsp; &amp;nbsp;&lt;/div&gt;" style="align=left;strokeColor=none;fillColor=none;spacingLeft=4;spacingRight=4;fontSize=12;verticalAlign=top;resizable=0;rotatable=0;part=1;html=1;whiteSpace=wrap;labelBackgroundColor=none;fontColor=#1D3557;" vertex="1" parent="WcN_yYlwKVQ22YOPY5FL-7">
          <mxGeometry y="50" width="160" height="140" as="geometry" />
        </mxCell>
        <mxCell id="WcN_yYlwKVQ22YOPY5FL-33" style="edgeStyle=orthogonalEdgeStyle;rounded=0;orthogonalLoop=1;jettySize=auto;html=1;exitX=1;exitY=0.25;exitDx=0;exitDy=0;entryX=0;entryY=0.5;entryDx=0;entryDy=0;labelBackgroundColor=none;strokeColor=#457B9D;fontColor=default;" edge="1" parent="1" source="WcN_yYlwKVQ22YOPY5FL-9" target="WcN_yYlwKVQ22YOPY5FL-31">
          <mxGeometry relative="1" as="geometry" />
        </mxCell>
        <mxCell id="WcN_yYlwKVQ22YOPY5FL-39" style="edgeStyle=orthogonalEdgeStyle;rounded=0;orthogonalLoop=1;jettySize=auto;html=1;exitX=0;exitY=0.25;exitDx=0;exitDy=0;entryX=0.75;entryY=1;entryDx=0;entryDy=0;labelBackgroundColor=none;strokeColor=#457B9D;fontColor=default;" edge="1" parent="1" source="WcN_yYlwKVQ22YOPY5FL-9" target="WcN_yYlwKVQ22YOPY5FL-2">
          <mxGeometry relative="1" as="geometry" />
        </mxCell>
        <mxCell id="WcN_yYlwKVQ22YOPY5FL-9" value="FactDailyCardTopUp" style="swimlane;childLayout=stackLayout;horizontal=1;startSize=50;horizontalStack=0;rounded=1;fontSize=14;fontStyle=0;strokeWidth=2;resizeParent=0;resizeLast=1;shadow=0;dashed=0;align=center;arcSize=4;whiteSpace=wrap;html=1;labelBackgroundColor=none;fillColor=#A8DADC;strokeColor=#457B9D;fontColor=#1D3557;" vertex="1" parent="1">
          <mxGeometry x="350" y="380" width="160" height="155" as="geometry" />
        </mxCell>
        <mxCell id="WcN_yYlwKVQ22YOPY5FL-10" value="&lt;div&gt;&amp;nbsp; &amp;nbsp; DateKey&amp;nbsp; &amp;nbsp; &amp;nbsp; &amp;nbsp;&amp;nbsp;&lt;/div&gt;&lt;div&gt;&amp;nbsp; &amp;nbsp; CardTypeKey&amp;nbsp; &amp;nbsp;&lt;/div&gt;&lt;div&gt;&amp;nbsp; &amp;nbsp; SalesChannelKey&amp;nbsp;&lt;/div&gt;&lt;div&gt;&amp;nbsp; &amp;nbsp; StationKey&amp;nbsp; &amp;nbsp; &amp;nbsp;&lt;/div&gt;&lt;div&gt;&amp;nbsp; &amp;nbsp; TotalTopUpAmt&amp;nbsp;&lt;/div&gt;&lt;div&gt;&amp;nbsp; &amp;nbsp; TotalTopUps&amp;nbsp; &amp;nbsp;&amp;nbsp;&lt;/div&gt;" style="align=left;strokeColor=none;fillColor=none;spacingLeft=4;spacingRight=4;fontSize=12;verticalAlign=top;resizable=0;rotatable=0;part=1;html=1;whiteSpace=wrap;labelBackgroundColor=none;fontColor=#1D3557;" vertex="1" parent="WcN_yYlwKVQ22YOPY5FL-9">
          <mxGeometry y="50" width="160" height="105" as="geometry" />
        </mxCell>
        <mxCell id="WcN_yYlwKVQ22YOPY5FL-48" style="edgeStyle=orthogonalEdgeStyle;rounded=0;orthogonalLoop=1;jettySize=auto;html=1;exitX=0.75;exitY=0;exitDx=0;exitDy=0;entryX=0;entryY=0.75;entryDx=0;entryDy=0;labelBackgroundColor=none;strokeColor=#457B9D;fontColor=default;" edge="1" parent="1" source="WcN_yYlwKVQ22YOPY5FL-11" target="WcN_yYlwKVQ22YOPY5FL-35">
          <mxGeometry relative="1" as="geometry" />
        </mxCell>
        <mxCell id="WcN_yYlwKVQ22YOPY5FL-11" value="FactAccCardTopUp" style="swimlane;childLayout=stackLayout;horizontal=1;startSize=50;horizontalStack=0;rounded=1;fontSize=14;fontStyle=0;strokeWidth=2;resizeParent=0;resizeLast=1;shadow=0;dashed=0;align=center;arcSize=4;whiteSpace=wrap;html=1;labelBackgroundColor=none;fillColor=#A8DADC;strokeColor=#457B9D;fontColor=#1D3557;" vertex="1" parent="1">
          <mxGeometry x="80" y="600" width="160" height="160" as="geometry" />
        </mxCell>
        <mxCell id="WcN_yYlwKVQ22YOPY5FL-12" value="&lt;div&gt;&lt;span style=&quot;white-space: normal;&quot;&gt;&lt;span style=&quot;white-space:pre&quot;&gt;&#x9;&lt;/span&gt; StationKey&amp;nbsp; &amp;nbsp;&amp;nbsp;&lt;/span&gt;&lt;/div&gt;&lt;div&gt;&lt;span style=&quot;white-space: normal;&quot;&gt;&lt;span style=&quot;white-space:pre&quot;&gt;&#x9;&lt;/span&gt; SalesChannelKey&amp;nbsp;&lt;/span&gt;&lt;/div&gt;&lt;div&gt;&lt;span style=&quot;white-space: normal;&quot;&gt;&lt;span style=&quot;white-space:pre&quot;&gt;&#x9;&lt;/span&gt; CardTypeKey&amp;nbsp; &amp;nbsp; &lt;span style=&quot;white-space:pre&quot;&gt;&#x9;&lt;/span&gt;&lt;/span&gt;&lt;/div&gt;&lt;div&gt;&lt;span style=&quot;white-space: normal;&quot;&gt;&lt;span style=&quot;white-space:pre&quot;&gt;&#x9;&lt;/span&gt; TotalTopUpAmt&amp;nbsp;&amp;nbsp;&lt;/span&gt;&lt;/div&gt;&lt;div&gt;&lt;span style=&quot;white-space: normal;&quot;&gt;&lt;span style=&quot;white-space:pre&quot;&gt;&#x9;&lt;/span&gt; MaxTopUpAmt&amp;nbsp;&amp;nbsp;&lt;/span&gt;&lt;/div&gt;&lt;div&gt;&lt;span style=&quot;white-space: normal;&quot;&gt;&lt;span style=&quot;white-space:pre&quot;&gt;&#x9;&lt;/span&gt; AvgTopUpAmt&amp;nbsp;&amp;nbsp;&lt;/span&gt;&lt;/div&gt;&lt;div&gt;&lt;span style=&quot;white-space: normal;&quot;&gt;&lt;span style=&quot;white-space:pre&quot;&gt;&#x9;&lt;/span&gt; TotalTopUps&amp;nbsp;&lt;/span&gt;&lt;/div&gt;" style="align=left;strokeColor=none;fillColor=none;spacingLeft=4;spacingRight=4;fontSize=12;verticalAlign=top;resizable=0;rotatable=0;part=1;html=1;whiteSpace=wrap;labelBackgroundColor=none;fontColor=#1D3557;" vertex="1" parent="WcN_yYlwKVQ22YOPY5FL-11">
          <mxGeometry y="50" width="160" height="110" as="geometry" />
        </mxCell>
        <mxCell id="WcN_yYlwKVQ22YOPY5FL-42" style="edgeStyle=orthogonalEdgeStyle;rounded=0;orthogonalLoop=1;jettySize=auto;html=1;exitX=1;exitY=0.25;exitDx=0;exitDy=0;entryX=0;entryY=0.5;entryDx=0;entryDy=0;labelBackgroundColor=none;strokeColor=#457B9D;fontColor=default;" edge="1" parent="1" source="WcN_yYlwKVQ22YOPY5FL-13" target="WcN_yYlwKVQ22YOPY5FL-40">
          <mxGeometry relative="1" as="geometry" />
        </mxCell>
        <mxCell id="WcN_yYlwKVQ22YOPY5FL-13" value="FactTrnsTicketSale" style="swimlane;childLayout=stackLayout;horizontal=1;startSize=50;horizontalStack=0;rounded=1;fontSize=14;fontStyle=0;strokeWidth=2;resizeParent=0;resizeLast=1;shadow=0;dashed=0;align=center;arcSize=4;whiteSpace=wrap;html=1;labelBackgroundColor=none;fillColor=#A8DADC;strokeColor=#457B9D;fontColor=#1D3557;" vertex="1" parent="1">
          <mxGeometry x="400" y="620" width="160" height="160" as="geometry" />
        </mxCell>
        <mxCell id="WcN_yYlwKVQ22YOPY5FL-14" value="&lt;div&gt;DateKey&amp;nbsp; &amp;nbsp; &amp;nbsp; &amp;nbsp;&amp;nbsp;&lt;/div&gt;&lt;div&gt;&lt;span style=&quot;white-space: normal;&quot;&gt;StationKey&amp;nbsp; &amp;nbsp; &amp;nbsp;&lt;/span&gt;&lt;/div&gt;&lt;div&gt;TimeKey&amp;nbsp; &amp;nbsp; &amp;nbsp; &amp;nbsp; &lt;span style=&quot;white-space:pre&quot;&gt;&#x9;&#x9;&lt;/span&gt;&lt;/div&gt;&lt;div&gt;&amp;nbsp;SalesChannelKey&lt;span style=&quot;white-space:pre&quot;&gt;&#x9;&lt;/span&gt;&lt;/div&gt;&lt;div&gt;&amp;nbsp;TicketRevenue&amp;nbsp;&amp;nbsp;&lt;/div&gt;" style="align=left;strokeColor=none;fillColor=none;spacingLeft=4;spacingRight=4;fontSize=12;verticalAlign=top;resizable=0;rotatable=0;part=1;html=1;whiteSpace=wrap;labelBackgroundColor=none;fontColor=#1D3557;" vertex="1" parent="WcN_yYlwKVQ22YOPY5FL-13">
          <mxGeometry y="50" width="160" height="110" as="geometry" />
        </mxCell>
        <mxCell id="WcN_yYlwKVQ22YOPY5FL-52" style="edgeStyle=orthogonalEdgeStyle;rounded=0;orthogonalLoop=1;jettySize=auto;html=1;exitX=0;exitY=0.25;exitDx=0;exitDy=0;entryX=1;entryY=0.5;entryDx=0;entryDy=0;labelBackgroundColor=none;strokeColor=#457B9D;fontColor=default;" edge="1" parent="1" source="WcN_yYlwKVQ22YOPY5FL-15" target="WcN_yYlwKVQ22YOPY5FL-51">
          <mxGeometry relative="1" as="geometry" />
        </mxCell>
        <mxCell id="WcN_yYlwKVQ22YOPY5FL-15" value="FactDailyTicketSale" style="swimlane;childLayout=stackLayout;horizontal=1;startSize=50;horizontalStack=0;rounded=1;fontSize=14;fontStyle=0;strokeWidth=2;resizeParent=0;resizeLast=1;shadow=0;dashed=0;align=center;arcSize=4;whiteSpace=wrap;html=1;labelBackgroundColor=none;fillColor=#A8DADC;strokeColor=#457B9D;fontColor=#1D3557;" vertex="1" parent="1">
          <mxGeometry x="770" y="290" width="160" height="160" as="geometry" />
        </mxCell>
        <mxCell id="WcN_yYlwKVQ22YOPY5FL-16" value="&lt;div&gt;&amp;nbsp; &amp;nbsp; DateKey&amp;nbsp; &amp;nbsp; &amp;nbsp; &amp;nbsp;&amp;nbsp;&lt;/div&gt;&lt;div&gt;&amp;nbsp; &amp;nbsp; StationKey&amp;nbsp; &amp;nbsp; &amp;nbsp; &amp;nbsp;&lt;/div&gt;&lt;div&gt;&amp;nbsp; &amp;nbsp; SalesChannelKey&amp;nbsp;&amp;nbsp;&lt;/div&gt;&lt;div&gt;&amp;nbsp; &amp;nbsp; TotalTicketsSold&amp;nbsp;&lt;/div&gt;&lt;div&gt;&amp;nbsp; &amp;nbsp; TotalRevenue&amp;nbsp;&amp;nbsp;&lt;/div&gt;" style="align=left;strokeColor=none;fillColor=none;spacingLeft=4;spacingRight=4;fontSize=12;verticalAlign=top;resizable=0;rotatable=0;part=1;html=1;whiteSpace=wrap;labelBackgroundColor=none;fontColor=#1D3557;" vertex="1" parent="WcN_yYlwKVQ22YOPY5FL-15">
          <mxGeometry y="50" width="160" height="110" as="geometry" />
        </mxCell>
        <mxCell id="WcN_yYlwKVQ22YOPY5FL-57" style="edgeStyle=orthogonalEdgeStyle;rounded=0;orthogonalLoop=1;jettySize=auto;html=1;exitX=0.75;exitY=0;exitDx=0;exitDy=0;entryX=0.5;entryY=1;entryDx=0;entryDy=0;labelBackgroundColor=none;strokeColor=#457B9D;fontColor=default;" edge="1" parent="1" source="WcN_yYlwKVQ22YOPY5FL-17" target="WcN_yYlwKVQ22YOPY5FL-56">
          <mxGeometry relative="1" as="geometry" />
        </mxCell>
        <mxCell id="WcN_yYlwKVQ22YOPY5FL-17" value="FactAccTicketSale" style="swimlane;childLayout=stackLayout;horizontal=1;startSize=50;horizontalStack=0;rounded=1;fontSize=14;fontStyle=0;strokeWidth=2;resizeParent=0;resizeLast=1;shadow=0;dashed=0;align=center;arcSize=4;whiteSpace=wrap;html=1;labelBackgroundColor=none;fillColor=#A8DADC;strokeColor=#457B9D;fontColor=#1D3557;" vertex="1" parent="1">
          <mxGeometry x="770" y="550" width="160" height="160" as="geometry" />
        </mxCell>
        <mxCell id="WcN_yYlwKVQ22YOPY5FL-18" value="&lt;div&gt;StationKey&amp;nbsp; &amp;nbsp; &amp;nbsp; &amp;nbsp;&lt;/div&gt;&lt;div&gt;&amp;nbsp;SalesChannelKey&amp;nbsp;&amp;nbsp;&lt;/div&gt;&lt;div&gt;&amp;nbsp;TotalTicketsSold&amp;nbsp;&lt;/div&gt;&lt;div&gt;&amp;nbsp;TotalRevenue&amp;nbsp; &amp;nbsp; &amp;nbsp;&lt;/div&gt;" style="align=left;strokeColor=none;fillColor=none;spacingLeft=4;spacingRight=4;fontSize=12;verticalAlign=top;resizable=0;rotatable=0;part=1;html=1;whiteSpace=wrap;labelBackgroundColor=none;fontColor=#1D3557;" vertex="1" parent="WcN_yYlwKVQ22YOPY5FL-17">
          <mxGeometry y="50" width="160" height="110" as="geometry" />
        </mxCell>
        <mxCell id="WcN_yYlwKVQ22YOPY5FL-19" value="DimDate" style="rounded=1;arcSize=10;whiteSpace=wrap;html=1;align=center;labelBackgroundColor=none;fillColor=#A8DADC;strokeColor=#457B9D;fontColor=#1D3557;" vertex="1" parent="1">
          <mxGeometry x="470" y="50" width="100" height="40" as="geometry" />
        </mxCell>
        <mxCell id="WcN_yYlwKVQ22YOPY5FL-20" value="DimStation" style="rounded=1;arcSize=10;whiteSpace=wrap;html=1;align=center;labelBackgroundColor=none;fillColor=#A8DADC;strokeColor=#457B9D;fontColor=#1D3557;" vertex="1" parent="1">
          <mxGeometry x="130" y="50" width="100" height="40" as="geometry" />
        </mxCell>
        <mxCell id="WcN_yYlwKVQ22YOPY5FL-21" value="&amp;nbsp;DimTime" style="rounded=1;arcSize=10;whiteSpace=wrap;html=1;align=center;labelBackgroundColor=none;fillColor=#A8DADC;strokeColor=#457B9D;fontColor=#1D3557;" vertex="1" parent="1">
          <mxGeometry x="460" y="110" width="100" height="40" as="geometry" />
        </mxCell>
        <mxCell id="WcN_yYlwKVQ22YOPY5FL-22" style="edgeStyle=orthogonalEdgeStyle;rounded=0;orthogonalLoop=1;jettySize=auto;html=1;exitX=0;exitY=0;exitDx=0;exitDy=0;entryX=1;entryY=0.5;entryDx=0;entryDy=0;labelBackgroundColor=none;strokeColor=#457B9D;fontColor=default;" edge="1" parent="1" source="WcN_yYlwKVQ22YOPY5FL-8" target="WcN_yYlwKVQ22YOPY5FL-20">
          <mxGeometry relative="1" as="geometry" />
        </mxCell>
        <mxCell id="WcN_yYlwKVQ22YOPY5FL-23" style="edgeStyle=orthogonalEdgeStyle;rounded=0;orthogonalLoop=1;jettySize=auto;html=1;exitX=0;exitY=0.5;exitDx=0;exitDy=0;entryX=1;entryY=0.25;entryDx=0;entryDy=0;labelBackgroundColor=none;strokeColor=#457B9D;fontColor=default;" edge="1" parent="1" source="WcN_yYlwKVQ22YOPY5FL-8" target="WcN_yYlwKVQ22YOPY5FL-5">
          <mxGeometry relative="1" as="geometry" />
        </mxCell>
        <mxCell id="WcN_yYlwKVQ22YOPY5FL-25" style="edgeStyle=orthogonalEdgeStyle;rounded=0;orthogonalLoop=1;jettySize=auto;html=1;exitX=1;exitY=0.5;exitDx=0;exitDy=0;entryX=0;entryY=0.5;entryDx=0;entryDy=0;labelBackgroundColor=none;strokeColor=#457B9D;fontColor=default;" edge="1" parent="1" source="WcN_yYlwKVQ22YOPY5FL-8" target="WcN_yYlwKVQ22YOPY5FL-21">
          <mxGeometry relative="1" as="geometry" />
        </mxCell>
        <mxCell id="WcN_yYlwKVQ22YOPY5FL-26" style="edgeStyle=orthogonalEdgeStyle;rounded=0;orthogonalLoop=1;jettySize=auto;html=1;exitX=1;exitY=0;exitDx=0;exitDy=0;entryX=0;entryY=0.25;entryDx=0;entryDy=0;labelBackgroundColor=none;strokeColor=#457B9D;fontColor=default;" edge="1" parent="1" source="WcN_yYlwKVQ22YOPY5FL-8" target="WcN_yYlwKVQ22YOPY5FL-19">
          <mxGeometry relative="1" as="geometry" />
        </mxCell>
        <mxCell id="WcN_yYlwKVQ22YOPY5FL-27" style="edgeStyle=orthogonalEdgeStyle;rounded=0;orthogonalLoop=1;jettySize=auto;html=1;exitX=0.25;exitY=1;exitDx=0;exitDy=0;entryX=1;entryY=0.25;entryDx=0;entryDy=0;labelBackgroundColor=none;strokeColor=#457B9D;fontColor=default;" edge="1" parent="1" source="WcN_yYlwKVQ22YOPY5FL-8" target="WcN_yYlwKVQ22YOPY5FL-1">
          <mxGeometry relative="1" as="geometry" />
        </mxCell>
        <mxCell id="WcN_yYlwKVQ22YOPY5FL-30" style="edgeStyle=orthogonalEdgeStyle;rounded=0;orthogonalLoop=1;jettySize=auto;html=1;exitX=1;exitY=0.75;exitDx=0;exitDy=0;labelBackgroundColor=none;strokeColor=#457B9D;fontColor=default;" edge="1" parent="1" source="WcN_yYlwKVQ22YOPY5FL-8" target="WcN_yYlwKVQ22YOPY5FL-4">
          <mxGeometry relative="1" as="geometry" />
        </mxCell>
        <mxCell id="WcN_yYlwKVQ22YOPY5FL-31" value="DimDate" style="rounded=1;arcSize=10;whiteSpace=wrap;html=1;align=center;labelBackgroundColor=none;fillColor=#A8DADC;strokeColor=#457B9D;fontColor=#1D3557;" vertex="1" parent="1">
          <mxGeometry x="550" y="390" width="100" height="40" as="geometry" />
        </mxCell>
        <mxCell id="WcN_yYlwKVQ22YOPY5FL-34" value="DimSalesChannel" style="swimlane;childLayout=stackLayout;horizontal=1;startSize=50;horizontalStack=0;rounded=1;fontSize=14;fontStyle=0;strokeWidth=2;resizeParent=0;resizeLast=1;shadow=0;dashed=0;align=center;arcSize=4;whiteSpace=wrap;html=1;labelBackgroundColor=none;fillColor=#A8DADC;strokeColor=#457B9D;fontColor=#1D3557;" vertex="1" parent="1">
          <mxGeometry x="550" y="450" width="160" height="120" as="geometry" />
        </mxCell>
        <mxCell id="WcN_yYlwKVQ22YOPY5FL-35" value="&lt;div&gt;SalesChannelID_BK&amp;nbsp;&lt;/div&gt;&lt;div&gt;&amp;nbsp; &amp;nbsp; ChannelCode&amp;nbsp; &amp;nbsp; &amp;nbsp;&lt;/div&gt;&lt;div&gt;&amp;nbsp; &amp;nbsp; Label_EN&amp;nbsp; &amp;nbsp; &amp;nbsp; &amp;nbsp;&amp;nbsp;&lt;/div&gt;&lt;div&gt;&amp;nbsp; &amp;nbsp; Label_FA&amp;nbsp;&amp;nbsp;&lt;/div&gt;" style="align=left;strokeColor=none;fillColor=none;spacingLeft=4;spacingRight=4;fontSize=12;verticalAlign=top;resizable=0;rotatable=0;part=1;html=1;whiteSpace=wrap;labelBackgroundColor=none;fontColor=#1D3557;" vertex="1" parent="WcN_yYlwKVQ22YOPY5FL-34">
          <mxGeometry y="50" width="160" height="70" as="geometry" />
        </mxCell>
        <mxCell id="WcN_yYlwKVQ22YOPY5FL-36" style="edgeStyle=orthogonalEdgeStyle;rounded=0;orthogonalLoop=1;jettySize=auto;html=1;exitX=1;exitY=0.5;exitDx=0;exitDy=0;entryX=-0.015;entryY=0.31;entryDx=0;entryDy=0;entryPerimeter=0;labelBackgroundColor=none;strokeColor=#457B9D;fontColor=default;" edge="1" parent="1" source="WcN_yYlwKVQ22YOPY5FL-10" target="WcN_yYlwKVQ22YOPY5FL-34">
          <mxGeometry relative="1" as="geometry" />
        </mxCell>
        <mxCell id="WcN_yYlwKVQ22YOPY5FL-37" value="DimStation" style="rounded=1;arcSize=10;whiteSpace=wrap;html=1;align=center;labelBackgroundColor=none;fillColor=#A8DADC;strokeColor=#457B9D;fontColor=#1D3557;" vertex="1" parent="1">
          <mxGeometry x="200" y="430" width="100" height="40" as="geometry" />
        </mxCell>
        <mxCell id="WcN_yYlwKVQ22YOPY5FL-38" style="edgeStyle=orthogonalEdgeStyle;rounded=0;orthogonalLoop=1;jettySize=auto;html=1;exitX=0;exitY=0.25;exitDx=0;exitDy=0;entryX=1;entryY=0.5;entryDx=0;entryDy=0;labelBackgroundColor=none;strokeColor=#457B9D;fontColor=default;" edge="1" parent="1" source="WcN_yYlwKVQ22YOPY5FL-10" target="WcN_yYlwKVQ22YOPY5FL-37">
          <mxGeometry relative="1" as="geometry" />
        </mxCell>
        <mxCell id="WcN_yYlwKVQ22YOPY5FL-40" value="DimDate" style="rounded=1;arcSize=10;whiteSpace=wrap;html=1;align=center;labelBackgroundColor=none;fillColor=#A8DADC;strokeColor=#457B9D;fontColor=#1D3557;" vertex="1" parent="1">
          <mxGeometry x="620" y="620" width="100" height="40" as="geometry" />
        </mxCell>
        <mxCell id="WcN_yYlwKVQ22YOPY5FL-41" value="DimStation" style="rounded=1;arcSize=10;whiteSpace=wrap;html=1;align=center;labelBackgroundColor=none;fillColor=#A8DADC;strokeColor=#457B9D;fontColor=#1D3557;" vertex="1" parent="1">
          <mxGeometry x="620" y="690" width="100" height="40" as="geometry" />
        </mxCell>
        <mxCell id="WcN_yYlwKVQ22YOPY5FL-43" style="edgeStyle=orthogonalEdgeStyle;rounded=0;orthogonalLoop=1;jettySize=auto;html=1;exitX=1;exitY=0.25;exitDx=0;exitDy=0;entryX=0;entryY=0.25;entryDx=0;entryDy=0;labelBackgroundColor=none;strokeColor=#457B9D;fontColor=default;" edge="1" parent="1" source="WcN_yYlwKVQ22YOPY5FL-14" target="WcN_yYlwKVQ22YOPY5FL-41">
          <mxGeometry relative="1" as="geometry" />
        </mxCell>
        <mxCell id="WcN_yYlwKVQ22YOPY5FL-44" value="&amp;nbsp;DimTime" style="rounded=1;arcSize=10;whiteSpace=wrap;html=1;align=center;labelBackgroundColor=none;fillColor=#A8DADC;strokeColor=#457B9D;fontColor=#1D3557;" vertex="1" parent="1">
          <mxGeometry x="630" y="750" width="100" height="40" as="geometry" />
        </mxCell>
        <mxCell id="WcN_yYlwKVQ22YOPY5FL-45" style="edgeStyle=orthogonalEdgeStyle;rounded=0;orthogonalLoop=1;jettySize=auto;html=1;exitX=1;exitY=0.5;exitDx=0;exitDy=0;entryX=0;entryY=0.75;entryDx=0;entryDy=0;labelBackgroundColor=none;strokeColor=#457B9D;fontColor=default;" edge="1" parent="1" source="WcN_yYlwKVQ22YOPY5FL-14" target="WcN_yYlwKVQ22YOPY5FL-44">
          <mxGeometry relative="1" as="geometry" />
        </mxCell>
        <mxCell id="WcN_yYlwKVQ22YOPY5FL-46" value="DimStation" style="rounded=1;arcSize=10;whiteSpace=wrap;html=1;align=center;labelBackgroundColor=none;fillColor=#A8DADC;strokeColor=#457B9D;fontColor=#1D3557;" vertex="1" parent="1">
          <mxGeometry x="280" y="620" width="100" height="40" as="geometry" />
        </mxCell>
        <mxCell id="WcN_yYlwKVQ22YOPY5FL-47" style="edgeStyle=orthogonalEdgeStyle;rounded=0;orthogonalLoop=1;jettySize=auto;html=1;exitX=1;exitY=0;exitDx=0;exitDy=0;labelBackgroundColor=none;strokeColor=#457B9D;fontColor=default;" edge="1" parent="1" source="WcN_yYlwKVQ22YOPY5FL-12" target="WcN_yYlwKVQ22YOPY5FL-46">
          <mxGeometry relative="1" as="geometry" />
        </mxCell>
        <mxCell id="WcN_yYlwKVQ22YOPY5FL-49" style="edgeStyle=orthogonalEdgeStyle;rounded=0;orthogonalLoop=1;jettySize=auto;html=1;exitX=0.25;exitY=0;exitDx=0;exitDy=0;entryX=0.398;entryY=1.08;entryDx=0;entryDy=0;entryPerimeter=0;labelBackgroundColor=none;strokeColor=#457B9D;fontColor=default;" edge="1" parent="1" source="WcN_yYlwKVQ22YOPY5FL-11" target="WcN_yYlwKVQ22YOPY5FL-2">
          <mxGeometry relative="1" as="geometry" />
        </mxCell>
        <mxCell id="WcN_yYlwKVQ22YOPY5FL-50" style="edgeStyle=orthogonalEdgeStyle;rounded=0;orthogonalLoop=1;jettySize=auto;html=1;exitX=0.25;exitY=1;exitDx=0;exitDy=0;entryX=1;entryY=0.25;entryDx=0;entryDy=0;labelBackgroundColor=none;strokeColor=#457B9D;fontColor=default;" edge="1" parent="1" source="WcN_yYlwKVQ22YOPY5FL-16" target="WcN_yYlwKVQ22YOPY5FL-35">
          <mxGeometry relative="1" as="geometry" />
        </mxCell>
        <mxCell id="WcN_yYlwKVQ22YOPY5FL-51" value="DimDate" style="rounded=1;arcSize=10;whiteSpace=wrap;html=1;align=center;labelBackgroundColor=none;fillColor=#A8DADC;strokeColor=#457B9D;fontColor=#1D3557;" vertex="1" parent="1">
          <mxGeometry x="620" y="300" width="100" height="40" as="geometry" />
        </mxCell>
        <mxCell id="WcN_yYlwKVQ22YOPY5FL-53" value="DimStation" style="rounded=1;arcSize=10;whiteSpace=wrap;html=1;align=center;labelBackgroundColor=none;fillColor=#A8DADC;strokeColor=#457B9D;fontColor=#1D3557;" vertex="1" parent="1">
          <mxGeometry x="750" y="190" width="100" height="40" as="geometry" />
        </mxCell>
        <mxCell id="WcN_yYlwKVQ22YOPY5FL-54" style="edgeStyle=orthogonalEdgeStyle;rounded=0;orthogonalLoop=1;jettySize=auto;html=1;exitX=0.25;exitY=0;exitDx=0;exitDy=0;entryX=0.62;entryY=1.05;entryDx=0;entryDy=0;entryPerimeter=0;labelBackgroundColor=none;strokeColor=#457B9D;fontColor=default;" edge="1" parent="1" source="WcN_yYlwKVQ22YOPY5FL-15" target="WcN_yYlwKVQ22YOPY5FL-53">
          <mxGeometry relative="1" as="geometry" />
        </mxCell>
        <mxCell id="WcN_yYlwKVQ22YOPY5FL-55" style="edgeStyle=orthogonalEdgeStyle;rounded=0;orthogonalLoop=1;jettySize=auto;html=1;exitX=0;exitY=0;exitDx=0;exitDy=0;entryX=1;entryY=0.5;entryDx=0;entryDy=0;labelBackgroundColor=none;strokeColor=#457B9D;fontColor=default;" edge="1" parent="1" source="WcN_yYlwKVQ22YOPY5FL-18" target="WcN_yYlwKVQ22YOPY5FL-35">
          <mxGeometry relative="1" as="geometry" />
        </mxCell>
        <mxCell id="WcN_yYlwKVQ22YOPY5FL-56" value="DimStation" style="rounded=1;arcSize=10;whiteSpace=wrap;html=1;align=center;labelBackgroundColor=none;fillColor=#A8DADC;strokeColor=#457B9D;fontColor=#1D3557;" vertex="1" parent="1">
          <mxGeometry x="880" y="470" width="100" height="40" as="geometry" />
        </mxCell>
      </root>
    </mxGraphModel>
  </diagram>
</mxfile>
